<?xml version="1.0" encoding="iso-8859-1"?>
<!-- Generator: Adobe Illustrator 16.0.0, SVG Export Plug-In . SVG Version: 6.00 Build 0)  -->
<!DOCTYPE svg PUBLIC "-//W3C//DTD SVG 1.1//EN" "http://www.w3.org/Graphics/SVG/1.1/DTD/svg11.dtd">
<svg version="1.1" id="Layer_1" xmlns="http://www.w3.org/2000/svg" xmlns:xlink="http://www.w3.org/1999/xlink" x="0px" y="0px"
	 width="313px" height="350px" viewBox="0 0 313 350" style="enable-background:new 0 0 313 350;" xml:space="preserve">
<g>
	<polygon style="fill:none;" points="127.633,130.901 149.236,130.901 149.236,94.875 176.41,94.875 176.41,77.921 149.236,77.921 
		149.236,59.259 185.604,59.259 185.604,41.827 127.633,41.827 	"/>
	<path style="fill:#08A1A1;" d="M309.475,84.279l-152.958,88.528l0,0l0,0l0,0v177.158l0,0V350c0,0,105.378-60.09,132.073-74.207
		c25.5-13.535,24.371-38.591,24.371-38.591L309.475,84.279z M269.141,189.897h-23.55v71.677h-21.738v-71.677h-23.517v-17.296h68.805
		V189.897z"/>
	<path style="fill:#078F8F;" d="M156.517,172.807L3.626,84.21L0.038,237.202c0,0-1.025,25.056,24.439,38.591
		c26.626,14.117,132.04,74.172,132.04,74.172V172.807L156.517,172.807z M118.063,261.574H96.461l-36.299-54.929v54.929H38.525
		v-88.973h21.637l36.299,55.167v-55.167h21.603V261.574z"/>
	<path style="fill:#00C1C1;" d="M309.475,84.279l0.068-0.068L178.529,5.39c0,0-21.329-13.399-45.7,2.051
		C107.331,23.608,3.626,84.21,3.626,84.21l152.89,88.596L309.475,84.21V84.279z M185.604,59.259h-36.368v18.662h27.174v16.954
		h-27.174v36.026h-21.603V41.827h57.971V59.259z"/>
</g>
</svg>
